<svg width="24" height="24" viewBox="0 0 24 24" fill="none" xmlns="http://www.w3.org/2000/svg">
<path d="M13.9427 1.59118L15.8696 5.65787C16.1854 6.32361 16.7951 6.785 17.5007 6.89187L21.8098 7.54408C23.5864 7.8129 24.2958 10.0865 23.0102 11.3917L19.8911 14.5567C19.3807 15.075 19.1478 15.8218 19.2682 16.5537L20.0042 21.0233C20.308 22.8661 18.4505 24.2712 16.862 23.4013L13.0077 21.2923C12.3767 20.9466 11.6227 20.9466 10.9916 21.2923L7.13735 23.4027C5.54879 24.2726 3.69126 22.8659 3.99507 21.0247L4.73108 16.5551C4.8521 15.8228 4.61897 15.0754 4.10819 14.5567L0.989952 11.3914C-0.29579 10.0862 0.413702 7.81255 2.19028 7.54372L6.49939 6.89151C7.20497 6.78463 7.81472 6.3232 8.13053 5.65751L10.0566 1.59123C10.852 -0.0860379 13.1473 -0.0860943 13.9427 1.59118Z" fill="#C4C4C4"/>
</svg>
