<svg width="13" height="13" viewBox="0 0 13 13" fill="none" xmlns="http://www.w3.org/2000/svg">
<path d="M12.4925 9.4425C12.3811 10.2894 11.9651 11.0668 11.3224 11.6294C10.6797 12.1921 9.8542 12.5015 9.00001 12.5C4.03751 12.5 5.6554e-06 8.4625 5.6554e-06 3.5C-0.00152558 2.6458 0.307935 1.82026 0.870589 1.17756C1.43324 0.534851 2.21061 0.118937 3.05751 0.0074956C3.27166 -0.0186538 3.48854 0.0251593 3.67575 0.132395C3.86296 0.23963 4.01047 0.404536 4.09626 0.602495L5.41626 3.54937V3.55687C5.48194 3.7084 5.50906 3.87385 5.49521 4.03842C5.48136 4.20299 5.42696 4.36157 5.33688 4.5C5.32563 4.51687 5.31376 4.5325 5.30126 4.54812L4.00001 6.09062C4.46813 7.04187 5.46313 8.02812 6.42688 8.4975L7.94813 7.20312C7.96307 7.19056 7.97872 7.17888 7.99501 7.16812C8.13331 7.07587 8.29244 7.01956 8.45799 7.00428C8.62353 6.98901 8.79028 7.01524 8.94313 7.08062L8.95126 7.08437L11.8956 8.40375C12.0939 8.48923 12.2592 8.63661 12.3668 8.82385C12.4744 9.01108 12.5185 9.22812 12.4925 9.4425Z" fill="#6596A1"/>
</svg>
