<svg width="45" height="44" viewBox="0 0 45 44" fill="none" xmlns="http://www.w3.org/2000/svg">
<path d="M44.2238 33.2987C43.8337 36.2629 42.378 38.9837 40.1286 40.9529C37.8791 42.9222 34.9897 44.0053 32 44C14.6313 44 0.50002 29.8687 0.50002 12.5C0.49466 9.51031 1.57777 6.62091 3.54706 4.37144C5.51635 2.12198 8.23714 0.666281 11.2013 0.276235C11.9508 0.184712 12.7099 0.338057 13.3651 0.713381C14.0204 1.0887 14.5366 1.66588 14.8369 2.35873L19.4569 12.6728V12.699C19.6868 13.2294 19.7817 13.8085 19.7332 14.3845C19.6848 14.9605 19.4944 15.5155 19.1791 16C19.1397 16.059 19.0981 16.1137 19.0544 16.1684L14.5 21.5672C16.1385 24.8965 19.621 28.3484 22.9941 29.9912L28.3185 25.4609C28.3707 25.417 28.4255 25.3761 28.4825 25.3384C28.9666 25.0156 29.5235 24.8185 30.103 24.765C30.6824 24.7115 31.266 24.8034 31.801 25.0322L31.8294 25.0453L42.1347 29.6631C42.8288 29.9623 43.4074 30.4781 43.7839 31.1335C44.1605 31.7888 44.3148 32.5484 44.2238 33.2987Z" fill="#BE859A"/>
</svg>